<svg width="360.8936767578125px" height="124.39999999999999px" xmlns="http://www.w3.org/2000/svg" viewBox="69.55316162109375 12.800000000000004 360.8936767578125 124.39999999999999" style="background: rgba(0, 0, 0, 0);" preserveAspectRatio="xMidYMid"><defs><filter id="editing-hole" x="-100%" y="-100%" width="300%" height="300%"><feFlood flood-color="#000000" result="black"></feFlood><feMorphology operator="dilate" radius="2" in="SourceGraphic" result="erode"></feMorphology><feGaussianBlur in="erode" stdDeviation="4" result="blur"></feGaussianBlur><feOffset in="blur" dx="2" dy="2" result="offset"></feOffset><feComposite operator="atop" in="offset" in2="black" result="merge"></feComposite><feComposite operator="in" in="merge" in2="SourceGraphic" result="inner-shadow"></feComposite></filter></defs><g filter="url(#editing-hole)"><g transform="translate(124.3599853515625, 104.7650032043457)"><path d="M5.75-44.81L12.16-44.81L12.16-6.41L35.19-6.41L35.19 0L5.75 0L5.75-44.81ZM71.03-27.13L71.03-6.16L71.03-6.16Q71.03-4.88 70.55-3.75L70.55-3.75L70.55-3.75Q70.06-2.63 69.23-1.80L69.23-1.80L69.23-1.80Q68.41-0.97 67.30-0.48L67.30-0.48L67.30-0.48Q66.19 0 64.91 0L64.91 0L48.38 0L48.38 0Q47.13 0 46-0.48L46-0.48L46-0.48Q44.88-0.97 44.05-1.80L44.05-1.80L44.05-1.80Q43.22-2.63 42.73-3.75L42.73-3.75L42.73-3.75Q42.25-4.88 42.25-6.16L42.25-6.16L42.25-27.13L42.25-27.13Q42.25-28.41 42.73-29.53L42.73-29.53L42.73-29.53Q43.22-30.66 44.05-31.48L44.05-31.48L44.05-31.48Q44.88-32.31 46-32.80L46-32.80L46-32.80Q47.13-33.28 48.38-33.28L48.38-33.28L64.91-33.28L64.91-33.28Q66.19-33.28 67.30-32.80L67.30-32.80L67.30-32.80Q68.41-32.31 69.23-31.48L69.23-31.48L69.23-31.48Q70.06-30.66 70.55-29.53L70.55-29.53L70.55-29.53Q71.03-28.41 71.03-27.13L71.03-27.13ZM64.91-27.13L48.38-27.13L48.38-6.16L64.91-6.16L64.91-27.13ZM81.28-6.16L81.28-14.53L81.28-14.53Q81.28-15.81 81.77-16.92L81.77-16.92L81.77-16.92Q82.25-18.03 83.08-18.88L83.08-18.88L83.08-18.88Q83.91-19.72 85.03-20.20L85.03-20.20L85.03-20.20Q86.16-20.69 87.41-20.69L87.41-20.69L103.28-20.69L103.28-27.13L83.19-27.13L83.19-33.28L103.28-33.28L103.28-33.28Q104.56-33.28 105.69-32.80L105.69-32.80L105.69-32.80Q106.81-32.31 107.64-31.48L107.64-31.48L107.64-31.48Q108.47-30.66 108.95-29.53L108.95-29.53L108.95-29.53Q109.44-28.41 109.44-27.13L109.44-27.13L109.44 0L103.28 0L103.28-5.63L103.28-5.63Q103.19-4.47 102.66-3.44L102.66-3.44L102.66-3.44Q102.13-2.41 101.30-1.64L101.30-1.64L101.30-1.64Q100.47-0.88 99.41-0.44L99.41-0.44L99.41-0.44Q98.34 0 97.16 0L97.16 0L87.41 0L87.41 0Q86.16 0 85.03-0.48L85.03-0.48L85.03-0.48Q83.91-0.97 83.08-1.80L83.08-1.80L83.08-1.80Q82.25-2.63 81.77-3.75L81.77-3.75L81.77-3.75Q81.28-4.88 81.28-6.16L81.28-6.16ZM87.41-14.53L87.41-6.16L103.28-6.16L103.28-14.53L87.41-14.53ZM119.69-6.16L119.69-27.13L119.69-27.13Q119.69-28.41 120.17-29.53L120.17-29.53L120.17-29.53Q120.66-30.66 121.48-31.48L121.48-31.48L121.48-31.48Q122.31-32.31 123.44-32.80L123.44-32.80L123.44-32.80Q124.56-33.28 125.81-33.28L125.81-33.28L142.97-33.28L142.97-46.09L149.13-46.09L149.13 0L142.97 0L142.97-5.63L142.97-5.63Q142.88-4.47 142.34-3.44L142.34-3.44L142.34-3.44Q141.81-2.41 140.98-1.64L140.98-1.64L140.98-1.64Q140.16-0.88 139.09-0.44L139.09-0.44L139.09-0.44Q138.03 0 136.84 0L136.84 0L125.81 0L125.81 0Q124.56 0 123.44-0.48L123.44-0.48L123.44-0.48Q122.31-0.97 121.48-1.80L121.48-1.80L121.48-1.80Q120.66-2.63 120.17-3.75L120.17-3.75L120.17-3.75Q119.69-4.88 119.69-6.16L119.69-6.16ZM125.81-27.13L125.81-6.16L142.97-6.16L142.97-27.13L125.81-27.13ZM159.69-33.28L165.84-33.28L165.84 0L159.69 0L159.69-33.28ZM159.38-39.69L159.38-46.09L166.16-46.09L166.16-39.69L159.38-39.69ZM205.84-27.13L205.84 0L199.69 0L199.69-27.13L182.53-27.13L182.53 0L176.41 0L176.41-33.28L182.53-33.28L182.53-27.41L182.53-27.41Q182.59-28.63 183.09-29.70L183.09-29.70L183.09-29.70Q183.59-30.78 184.42-31.58L184.42-31.58L184.42-31.58Q185.25-32.38 186.34-32.83L186.34-32.83L186.34-32.83Q187.44-33.28 188.69-33.28L188.69-33.28L199.69-33.28L199.69-33.28Q200.97-33.28 202.09-32.80L202.09-32.80L202.09-32.80Q203.22-32.31 204.05-31.48L204.05-31.48L204.05-31.48Q204.88-30.66 205.36-29.53L205.36-29.53L205.36-29.53Q205.84-28.41 205.84-27.13L205.84-27.13ZM216.09-7.44L216.09-27.13L216.09-27.13Q216.09-28.41 216.58-29.53L216.58-29.53L216.58-29.53Q217.06-30.66 217.89-31.48L217.89-31.48L217.89-31.48Q218.72-32.31 219.84-32.80L219.84-32.80L219.84-32.80Q220.97-33.28 222.22-33.28L222.22-33.28L233.25-33.28L233.25-33.28Q234.47-33.28 235.56-32.83L235.56-32.83L235.56-32.83Q236.66-32.38 237.48-31.58L237.48-31.58L237.48-31.58Q238.31-30.78 238.83-29.70L238.83-29.70L238.83-29.70Q239.34-28.63 239.38-27.41L239.38-27.41L239.38-33.28L245.53-33.28L245.53 7.28L245.53 7.28Q245.53 8.56 245.05 9.69L245.05 9.69L245.05 9.69Q244.56 10.81 243.73 11.64L243.73 11.64L243.73 11.64Q242.91 12.47 241.78 12.95L241.78 12.95L241.78 12.95Q240.66 13.44 239.38 13.44L239.38 13.44L219.94 13.44L219.94 7.28L239.38 7.28L239.38-1.28L222.22-1.28L222.22-1.28Q220.97-1.28 219.84-1.77L219.84-1.77L219.84-1.77Q218.72-2.25 217.89-3.08L217.89-3.08L217.89-3.08Q217.06-3.91 216.58-5.03L216.58-5.03L216.58-5.03Q216.09-6.16 216.09-7.44L216.09-7.44ZM222.22-7.44L239.38-7.44L239.38-27.13L222.22-27.13L222.22-7.44Z" fill="#ffffff"></path></g></g><style>text {
  font-size: 64px;
  font-family: Arial Black;
  dominant-baseline: central;
  text-anchor: middle;
}</style></svg>